<svg viewBox="0 0 980 480" xmlns="http://www.w3.org/2000/svg" style="background:#0a0e1a">
<defs><style>.sec-line{fill:none;stroke-width:1.6;opacity:.88}.is-index .sec-line{stroke-width:2.4}.baseline{stroke:#475569;stroke-width:.8;stroke-dasharray:4 3}.grid{stroke:#1e293b;stroke-width:.5}.axis-text{fill:#64748b;font-size:10px;font-family:monospace}</style></defs>
<line x1="60" y1="382.9" x2="850" y2="382.9" class="grid"/>
<text x="52" y="382.9" text-anchor="end" dominant-baseline="middle" class="axis-text">80</text>
<line x1="60" y1="365.9" x2="850" y2="365.9" class="grid"/>
<text x="52" y="365.9" text-anchor="end" dominant-baseline="middle" class="axis-text">90</text>
<line x1="60" y1="348.9" x2="850" y2="348.9" class="baseline"/>
<text x="52" y="348.9" text-anchor="end" dominant-baseline="middle" class="axis-text">100</text>
<line x1="60" y1="331.9" x2="850" y2="331.9" class="grid"/>
<text x="52" y="331.9" text-anchor="end" dominant-baseline="middle" class="axis-text">110</text>
<line x1="60" y1="314.9" x2="850" y2="314.9" class="grid"/>
<text x="52" y="314.9" text-anchor="end" dominant-baseline="middle" class="axis-text">120</text>
<line x1="60" y1="297.9" x2="850" y2="297.9" class="grid"/>
<text x="52" y="297.9" text-anchor="end" dominant-baseline="middle" class="axis-text">130</text>
<line x1="60" y1="280.9" x2="850" y2="280.9" class="grid"/>
<text x="52" y="280.9" text-anchor="end" dominant-baseline="middle" class="axis-text">140</text>
<g class="is-index"><path d="M 60.0,348.9 L 65.8,343.0 L 71.5,340.4 L 77.3,339.4 L 83.1,339.3 L 88.8,338.0 L 94.6,336.5 L 100.4,333.8 L 106.1,332.6 L 111.9,329.6 L 117.7,327.9 L 123.4,325.4 L 129.2,326.2 L 135.0,325.2 L 140.7,323.5 L 146.5,322.0 L 152.3,323.6 L 158.0,318.3 L 163.8,314.9 L 169.6,312.9 L 175.3,312.8 L 181.1,323.6 L 186.9,310.3 L 192.6,307.0 L 198.4,315.2 L 204.2,318.1 L 209.9,309.9 L 215.7,309.8 L 221.5,307.7 L 227.2,301.1 L 233.0,301.7 L 238.8,294.9 L 244.5,289.8 L 250.3,288.3 L 256.1,283.4 L 261.8,278.9 L 267.6,270.1 L 273.4,272.6 L 279.1,290.4 L 284.9,318.0 L 290.7,298.6 L 296.4,298.6 L 302.2,311.7 L 308.0,300.7 L 313.7,297.6 L 319.5,298.7 L 325.3,302.4 L 331.0,300.0 L 336.8,296.4 L 342.6,285.2 L 348.3,291.6 L 354.1,290.9 L 359.9,305.7 L 365.6,299.8 L 371.4,296.3 L 377.2,303.5 L 382.9,304.3 L 388.7,310.7 L 394.5,319.6 L 400.2,302.8 L 406.0,312.4 L 411.8,306.8 L 417.5,303.9 L 423.3,302.1 L 429.1,287.3 L 434.8,291.0 L 440.6,287.8 L 446.4,289.8 L 452.1,283.5 L 457.9,278.6 L 463.6,273.3 L 469.4,274.7 L 475.2,273.6 L 480.9,266.9 L 486.7,265.7 L 492.5,263.5 L 498.2,263.5 L 504.0,258.0 L 509.8,256.9 L 515.5,255.0 L 521.3,258.6 L 527.1,245.3 L 532.8,227.6 L 538.6,223.5 L 544.4,223.2 L 550.1,210.4 L 555.9,217.4 L 561.7,209.5 L 567.4,204.1 L 573.2,223.3 L 579.0,222.4 L 584.7,232.1 L 590.5,234.5 L 596.3,210.6 L 602.0,209.4 L 607.8,201.5 L 613.6,194.3 L 619.3,196.0 L 625.1,184.6 L 630.9,172.3 L 636.6,171.7 L 642.4,178.1 L 648.2,197.0 L 653.9,223.7 L 659.7,199.5 L 665.5,214.0 L 671.2,212.7 L 677.0,198.5 L 682.8,181.8 L 688.5,174.7 L 694.3,169.3 L 700.1,161.4 L 705.8,161.9 L 711.6,159.4 L 717.4,195.3 L 723.1,184.8 L 728.9,166.7 L 734.7,187.1 L 740.4,187.8 L 746.2,184.6 L 752.0,191.4 L 757.7,217.2 L 763.5,199.9 L 769.3,201.3 L 775.0,216.9 L 780.8,233.1 L 786.6,231.3 L 792.3,224.0 L 798.1,250.4 L 803.9,248.4 L 809.6,231.6 L 815.4,249.9 L 821.2,261.9 L 826.9,252.7 L 832.7,250.8 L 838.5,239.0 L 844.2,255.0 L 850.0,252.8" class="sec-line" stroke="#7dd3fc" stroke-dasharray="6 3"/></g>
<g class="is-index"><path d="M 60.0,348.9 L 65.8,346.7 L 71.5,347.0 L 77.3,348.6 L 83.1,349.2 L 88.8,348.5 L 94.6,348.1 L 100.4,348.3 L 106.1,349.5 L 111.9,347.9 L 117.7,347.3 L 123.4,344.8 L 129.2,343.3 L 135.0,347.9 L 140.7,344.4 L 146.5,340.2 L 152.3,327.5 L 158.0,324.3 L 163.8,315.1 L 169.6,309.5 L 175.3,312.2 L 181.1,321.4 L 186.9,313.2 L 192.6,312.2 L 198.4,319.6 L 204.2,324.6 L 209.9,316.2 L 215.7,318.4 L 221.5,318.5 L 227.2,316.5 L 233.0,320.0 L 238.8,310.2 L 244.5,311.4 L 250.3,311.8 L 256.1,309.4 L 261.8,309.4 L 267.6,305.3 L 273.4,304.4 L 279.1,314.3 L 284.9,343.0 L 290.7,318.2 L 296.4,311.3 L 302.2,320.7 L 308.0,314.4 L 313.7,314.5 L 319.5,312.4 L 325.3,311.6 L 331.0,314.2 L 336.8,314.5 L 342.6,309.6 L 348.3,313.3 L 354.1,310.1 L 359.9,321.7 L 365.6,317.3 L 371.4,310.4 L 377.2,314.5 L 382.9,313.7 L 388.7,319.9 L 394.5,329.7 L 400.2,318.2 L 406.0,329.0 L 411.8,327.6 L 417.5,330.6 L 423.3,332.5 L 429.1,322.9 L 434.8,325.4 L 440.6,322.3 L 446.4,321.2 L 452.1,317.2 L 457.9,311.7 L 463.6,309.8 L 469.4,308.5 L 475.2,307.7 L 480.9,306.9 L 486.7,306.5 L 492.5,307.8 L 498.2,302.5 L 504.0,298.4 L 509.8,300.4 L 515.5,299.5 L 521.3,304.5 L 527.1,300.7 L 532.8,301.3 L 538.6,303.3 L 544.4,301.8 L 550.1,301.8 L 555.9,306.9 L 561.7,307.3 L 567.4,304.8 L 573.2,315.8 L 579.0,319.1 L 584.7,323.9 L 590.5,329.0 L 596.3,320.1 L 602.0,310.1 L 607.8,308.1 L 613.6,315.2 L 619.3,320.3 L 625.1,325.7 L 630.9,330.1 L 636.6,334.4 L 642.4,330.2 L 648.2,338.7 L 653.9,355.0 L 659.7,344.9 L 665.5,347.8 L 671.2,339.6 L 677.0,333.9 L 682.8,333.0 L 688.5,335.7 L 694.3,333.4 L 700.1,338.9 L 705.8,345.1 L 711.6,344.8 L 717.4,358.6 L 723.1,355.4 L 728.9,359.3 L 734.7,365.8 L 740.4,353.4 L 746.2,354.2 L 752.0,351.8 L 757.7,363.1 L 763.5,362.7 L 769.3,366.6 L 775.0,369.4 L 780.8,377.7 L 786.6,376.1 L 792.3,368.3 L 798.1,375.2 L 803.9,377.9 L 809.6,369.8 L 815.4,376.5 L 821.2,384.1 L 826.9,383.4 L 832.7,383.8 L 838.5,376.8 L 844.2,384.3 L 850.0,379.1" class="sec-line" stroke="#bef264" stroke-dasharray="6 3"/></g>
<g class=""><path d="M 60.0,348.9 L 65.8,340.8 L 71.5,335.1 L 77.3,336.4 L 83.1,336.7 L 88.8,339.0 L 94.6,339.4 L 100.4,338.7 L 106.1,335.7 L 111.9,334.2 L 117.7,332.8 L 123.4,331.2 L 129.2,335.9 L 135.0,335.3 L 140.7,331.9 L 146.5,331.4 L 152.3,328.2 L 158.0,316.1 L 163.8,303.5 L 169.6,298.6 L 175.3,289.9 L 181.1,308.0 L 186.9,288.4 L 192.6,288.4 L 198.4,300.8 L 204.2,299.7 L 209.9,289.0 L 215.7,293.8 L 221.5,296.1 L 227.2,286.8 L 233.0,288.5 L 238.8,281.1 L 244.5,277.6 L 250.3,279.1 L 256.1,270.5 L 261.8,269.1 L 267.6,245.8 L 273.4,245.3 L 279.1,265.2 L 284.9,298.5 L 290.7,257.8 L 296.4,253.2 L 302.2,276.8 L 308.0,261.3 L 313.7,263.4 L 319.5,264.2 L 325.3,267.2 L 331.0,260.7 L 336.8,260.7 L 342.6,246.1 L 348.3,250.4 L 354.1,249.3 L 359.9,265.8 L 365.6,259.0 L 371.4,254.9 L 377.2,269.7 L 382.9,271.1 L 388.7,281.5 L 394.5,293.3 L 400.2,269.9 L 406.0,285.0 L 411.8,277.0 L 417.5,276.6 L 423.3,272.4 L 429.1,248.0 L 434.8,254.8 L 440.6,251.5 L 446.4,251.4 L 452.1,244.7 L 457.9,236.8 L 463.6,231.7 L 469.4,232.3 L 475.2,227.1 L 480.9,218.6 L 486.7,215.3 L 492.5,213.8 L 498.2,208.4 L 504.0,193.5 L 509.8,192.8 L 515.5,195.1 L 521.3,197.4 L 527.1,180.2 L 532.8,155.4 L 538.6,150.0 L 544.4,145.8 L 550.1,121.5 L 555.9,134.7 L 561.7,114.3 L 567.4,110.8 L 573.2,140.2 L 579.0,139.3 L 584.7,154.5 L 590.5,152.9 L 596.3,117.0 L 602.0,115.2 L 607.8,96.7 L 613.6,94.3 L 619.3,101.5 L 625.1,101.0 L 630.9,89.5 L 636.6,93.5 L 642.4,82.0 L 648.2,110.9 L 653.9,150.5 L 659.7,107.2 L 665.5,125.6 L 671.2,108.8 L 677.0,80.9 L 682.8,69.7 L 688.5,72.9 L 694.3,62.2 L 700.1,45.2 L 705.8,49.0 L 711.6,30.0 L 717.4,86.0 L 723.1,73.9 L 728.9,46.0 L 734.7,73.2 L 740.4,79.9 L 746.2,68.7 L 752.0,78.8 L 757.7,131.5 L 763.5,110.8 L 769.3,120.4 L 775.0,146.2 L 780.8,167.5 L 786.6,153.9 L 792.3,138.9 L 798.1,180.5 L 803.9,173.1 L 809.6,139.6 L 815.4,175.6 L 821.2,195.7 L 826.9,186.6 L 832.7,189.4 L 838.5,176.2 L 844.2,205.4 L 850.0,198.4" class="sec-line" stroke="#34d399"/></g>
<g class=""><path d="M 60.0,348.9 L 65.8,348.7 L 71.5,349.3 L 77.3,339.7 L 83.1,342.4 L 88.8,334.5 L 94.6,336.3 L 100.4,323.9 L 106.1,319.7 L 111.9,315.2 L 117.7,316.8 L 123.4,300.5 L 129.2,302.2 L 135.0,285.5 L 140.7,293.1 L 146.5,298.1 L 152.3,301.6 L 158.0,302.9 L 163.8,304.2 L 169.6,297.0 L 175.3,303.6 L 181.1,311.2 L 186.9,305.2 L 192.6,301.5 L 198.4,304.5 L 204.2,310.6 L 209.9,305.2 L 215.7,300.8 L 221.5,295.0 L 227.2,294.5 L 233.0,296.7 L 238.8,291.2 L 244.5,289.4 L 250.3,289.4 L 256.1,287.2 L 261.8,272.3 L 267.6,258.7 L 273.4,252.3 L 279.1,278.0 L 284.9,313.3 L 290.7,296.3 L 296.4,294.8 L 302.2,310.0 L 308.0,302.7 L 313.7,301.2 L 319.5,301.0 L 325.3,305.8 L 331.0,308.7 L 336.8,301.8 L 342.6,293.7 L 348.3,299.8 L 354.1,301.3 L 359.9,312.4 L 365.6,308.1 L 371.4,305.3 L 377.2,308.5 L 382.9,307.7 L 388.7,315.1 L 394.5,321.3 L 400.2,308.4 L 406.0,317.5 L 411.8,317.4 L 417.5,317.8 L 423.3,317.9 L 429.1,304.3 L 434.8,309.1 L 440.6,307.2 L 446.4,312.6 L 452.1,308.8 L 457.9,303.3 L 463.6,297.5 L 469.4,295.9 L 475.2,299.4 L 480.9,291.0 L 486.7,290.4 L 492.5,293.2 L 498.2,299.0 L 504.0,296.0 L 509.8,289.0 L 515.5,292.5 L 521.3,299.7 L 527.1,296.0 L 532.8,295.3 L 538.6,289.7 L 544.4,276.6 L 550.1,265.1 L 555.9,270.3 L 561.7,249.9 L 567.4,248.0 L 573.2,254.3 L 579.0,267.7 L 584.7,284.6 L 590.5,288.8 L 596.3,258.6 L 602.0,259.5 L 607.8,252.5 L 613.6,253.3 L 619.3,255.2 L 625.1,238.7 L 630.9,236.0 L 636.6,241.1 L 642.4,246.0 L 648.2,254.3 L 653.9,275.7 L 659.7,269.6 L 665.5,279.7 L 671.2,279.8 L 677.0,267.9 L 682.8,256.8 L 688.5,255.6 L 694.3,263.7 L 700.1,273.2 L 705.8,274.1 L 711.6,286.2 L 717.4,308.7 L 723.1,308.7 L 728.9,310.5 L 734.7,317.2 L 740.4,307.7 L 746.2,310.7 L 752.0,310.8 L 757.7,309.9 L 763.5,306.9 L 769.3,298.8 L 775.0,306.2 L 780.8,308.7 L 786.6,317.1 L 792.3,309.2 L 798.1,314.9 L 803.9,322.9 L 809.6,315.5 L 815.4,316.0 L 821.2,325.7 L 826.9,322.9 L 832.7,315.6 L 838.5,307.8 L 844.2,325.7 L 850.0,324.3" class="sec-line" stroke="#f59e0b"/></g>
<g class=""><path d="M 60.0,348.9 L 65.8,344.4 L 71.5,342.1 L 77.3,345.1 L 83.1,346.6 L 88.8,348.1 L 94.6,341.3 L 100.4,330.8 L 106.1,335.9 L 111.9,333.0 L 117.7,337.7 L 123.4,330.2 L 129.2,325.8 L 135.0,328.7 L 140.7,312.9 L 146.5,313.3 L 152.3,303.5 L 158.0,302.7 L 163.8,288.7 L 169.6,289.8 L 175.3,300.1 L 181.1,310.8 L 186.9,302.2 L 192.6,296.9 L 198.4,302.4 L 204.2,310.3 L 209.9,304.1 L 215.7,304.9 L 221.5,305.9 L 227.2,299.5 L 233.0,305.1 L 238.8,293.5 L 244.5,293.9 L 250.3,297.6 L 256.1,288.2 L 261.8,280.3 L 267.6,277.7 L 273.4,274.1 L 279.1,296.4 L 284.9,329.5 L 290.7,308.2 L 296.4,302.0 L 302.2,311.9 L 308.0,307.8 L 313.7,307.1 L 319.5,307.8 L 325.3,315.0 L 331.0,318.2 L 336.8,314.4 L 342.6,308.3 L 348.3,313.1 L 354.1,313.1 L 359.9,323.5 L 365.6,312.5 L 371.4,307.4 L 377.2,309.0 L 382.9,306.4 L 388.7,304.0 L 394.5,311.0 L 400.2,301.5 L 406.0,305.7 L 411.8,304.6 L 417.5,299.1 L 423.3,298.0 L 429.1,292.7 L 434.8,289.9 L 440.6,290.6 L 446.4,296.1 L 452.1,296.0 L 457.9,292.8 L 463.6,289.1 L 469.4,282.3 L 475.2,277.2 L 480.9,252.4 L 486.7,249.3 L 492.5,259.8 L 498.2,254.2 L 504.0,256.2 L 509.8,247.1 L 515.5,241.8 L 521.3,248.7 L 527.1,238.5 L 532.8,231.8 L 538.6,233.0 L 544.4,236.6 L 550.1,242.3 L 555.9,260.5 L 561.7,264.4 L 567.4,259.3 L 573.2,272.9 L 579.0,276.2 L 584.7,286.5 L 590.5,295.0 L 596.3,280.6 L 602.0,271.1 L 607.8,269.5 L 613.6,278.9 L 619.3,266.6 L 625.1,263.4 L 630.9,270.1 L 636.6,281.4 L 642.4,281.7 L 648.2,293.1 L 653.9,313.8 L 659.7,307.6 L 665.5,313.1 L 671.2,312.6 L 677.0,302.2 L 682.8,289.1 L 688.5,292.1 L 694.3,294.0 L 700.1,304.0 L 705.8,305.6 L 711.6,310.1 L 717.4,328.7 L 723.1,324.0 L 728.9,332.2 L 734.7,342.6 L 740.4,316.7 L 746.2,329.2 L 752.0,334.8 L 757.7,340.0 L 763.5,337.5 L 769.3,341.2 L 775.0,347.6 L 780.8,356.8 L 786.6,357.0 L 792.3,347.4 L 798.1,349.6 L 803.9,355.0 L 809.6,344.7 L 815.4,349.4 L 821.2,358.7 L 826.9,357.8 L 832.7,357.6 L 838.5,342.2 L 844.2,351.7 L 850.0,349.1" class="sec-line" stroke="#c084fc"/></g>
<g class=""><path d="M 60.0,348.9 L 65.8,341.9 L 71.5,344.2 L 77.3,347.7 L 83.1,346.4 L 88.8,346.4 L 94.6,340.2 L 100.4,339.5 L 106.1,332.2 L 111.9,332.0 L 117.7,330.0 L 123.4,328.7 L 129.2,327.9 L 135.0,331.7 L 140.7,330.8 L 146.5,330.1 L 152.3,331.2 L 158.0,327.3 L 163.8,321.9 L 169.6,319.9 L 175.3,318.1 L 181.1,336.7 L 186.9,320.4 L 192.6,310.7 L 198.4,318.1 L 204.2,326.5 L 209.9,311.8 L 215.7,314.5 L 221.5,308.0 L 227.2,306.0 L 233.0,307.9 L 238.8,304.6 L 244.5,297.6 L 250.3,284.3 L 256.1,280.4 L 261.8,277.8 L 267.6,267.7 L 273.4,272.7 L 279.1,292.8 L 284.9,324.3 L 290.7,301.7 L 296.4,300.8 L 302.2,311.4 L 308.0,301.6 L 313.7,300.9 L 319.5,297.2 L 325.3,297.3 L 331.0,300.3 L 336.8,297.0 L 342.6,281.8 L 348.3,280.0 L 354.1,275.2 L 359.9,292.0 L 365.6,289.0 L 371.4,276.5 L 377.2,282.6 L 382.9,293.0 L 388.7,302.4 L 394.5,311.0 L 400.2,292.8 L 406.0,302.5 L 411.8,299.7 L 417.5,296.2 L 423.3,299.0 L 429.1,281.5 L 434.8,284.4 L 440.6,278.9 L 446.4,269.0 L 452.1,261.5 L 457.9,248.2 L 463.6,246.0 L 469.4,247.9 L 475.2,246.1 L 480.9,245.6 L 486.7,236.1 L 492.5,218.0 L 498.2,198.3 L 504.0,169.9 L 509.8,173.4 L 515.5,158.5 L 521.3,145.4 L 527.1,106.3 L 532.8,78.1 L 538.6,78.5 L 544.4,68.6 L 550.1,74.2 L 555.9,93.9 L 561.7,102.6 L 567.4,118.0 L 573.2,149.0 L 579.0,145.6 L 584.7,160.3 L 590.5,171.6 L 596.3,135.2 L 602.0,129.4 L 607.8,133.1 L 613.6,157.5 L 619.3,175.5 L 625.1,185.0 L 630.9,164.2 L 636.6,191.7 L 642.4,195.9 L 648.2,212.3 L 653.9,233.1 L 659.7,215.9 L 665.5,210.4 L 671.2,215.2 L 677.0,212.0 L 682.8,182.3 L 688.5,181.7 L 694.3,180.5 L 700.1,192.6 L 705.8,190.2 L 711.6,200.9 L 717.4,222.0 L 723.1,229.6 L 728.9,233.1 L 734.7,252.4 L 740.4,230.0 L 746.2,217.3 L 752.0,189.0 L 757.7,212.7 L 763.5,221.4 L 769.3,234.9 L 775.0,251.0 L 780.8,275.6 L 786.6,271.3 L 792.3,255.1 L 798.1,277.2 L 803.9,275.5 L 809.6,263.3 L 815.4,277.1 L 821.2,293.3 L 826.9,284.8 L 832.7,277.6 L 838.5,250.2 L 844.2,269.9 L 850.0,268.9" class="sec-line" stroke="#fbbf24"/></g>
<g class=""><path d="M 60.0,348.9 L 65.8,346.7 L 71.5,345.5 L 77.3,348.0 L 83.1,351.5 L 88.8,350.1 L 94.6,349.8 L 100.4,348.4 L 106.1,346.7 L 111.9,347.1 L 117.7,346.9 L 123.4,347.5 L 129.2,343.2 L 135.0,342.0 L 140.7,340.5 L 146.5,338.3 L 152.3,338.6 L 158.0,332.1 L 163.8,334.9 L 169.6,333.9 L 175.3,337.3 L 181.1,338.3 L 186.9,328.4 L 192.6,323.4 L 198.4,322.6 L 204.2,317.8 L 209.9,311.3 L 215.7,304.8 L 221.5,296.3 L 227.2,286.6 L 233.0,289.8 L 238.8,289.9 L 244.5,283.3 L 250.3,287.0 L 256.1,292.2 L 261.8,291.5 L 267.6,293.7 L 273.4,301.0 L 279.1,306.5 L 284.9,328.5 L 290.7,315.2 L 296.4,318.1 L 302.2,324.9 L 308.0,319.5 L 313.7,314.4 L 319.5,316.8 L 325.3,320.1 L 331.0,320.8 L 336.8,317.9 L 342.6,311.2 L 348.3,310.9 L 354.1,309.1 L 359.9,323.6 L 365.6,322.3 L 371.4,317.4 L 377.2,316.0 L 382.9,314.5 L 388.7,321.0 L 394.5,325.9 L 400.2,316.8 L 406.0,321.6 L 411.8,322.0 L 417.5,318.5 L 423.3,321.4 L 429.1,310.6 L 434.8,312.7 L 440.6,306.8 L 446.4,307.8 L 452.1,306.2 L 457.9,304.2 L 463.6,301.9 L 469.4,301.6 L 475.2,302.4 L 480.9,303.0 L 486.7,306.5 L 492.5,306.1 L 498.2,303.7 L 504.0,306.9 L 509.8,304.9 L 515.5,304.9 L 521.3,305.6 L 527.1,307.5 L 532.8,308.0 L 538.6,305.7 L 544.4,306.6 L 550.1,309.0 L 555.9,312.8 L 561.7,316.2 L 567.4,311.4 L 573.2,317.0 L 579.0,319.5 L 584.7,319.0 L 590.5,321.9 L 596.3,317.5 L 602.0,312.0 L 607.8,314.4 L 613.6,317.7 L 619.3,323.8 L 625.1,323.4 L 630.9,323.4 L 636.6,319.9 L 642.4,312.1 L 648.2,304.1 L 653.9,322.0 L 659.7,314.2 L 665.5,316.8 L 671.2,320.1 L 677.0,312.3 L 682.8,301.5 L 688.5,296.7 L 694.3,305.5 L 700.1,307.4 L 705.8,312.7 L 711.6,318.1 L 717.4,322.8 L 723.1,322.8 L 728.9,324.7 L 734.7,330.8 L 740.4,322.6 L 746.2,321.1 L 752.0,321.2 L 757.7,310.6 L 763.5,304.8 L 769.3,305.1 L 775.0,302.1 L 780.8,307.5 L 786.6,310.9 L 792.3,298.6 L 798.1,297.5 L 803.9,298.7 L 809.6,296.7 L 815.4,296.5 L 821.2,305.5 L 826.9,304.7 L 832.7,304.7 L 838.5,304.8 L 844.2,305.1 L 850.0,302.1" class="sec-line" stroke="#fde047"/></g>
<g class=""><path d="M 60.0,348.9 L 65.8,346.9 L 71.5,336.8 L 77.3,340.9 L 83.1,344.1 L 88.8,343.1 L 94.6,341.5 L 100.4,339.4 L 106.1,334.4 L 111.9,330.0 L 117.7,327.2 L 123.4,327.0 L 129.2,328.4 L 135.0,331.8 L 140.7,327.8 L 146.5,314.2 L 152.3,314.7 L 158.0,306.4 L 163.8,304.6 L 169.6,284.5 L 175.3,280.9 L 181.1,296.3 L 186.9,267.5 L 192.6,267.3 L 198.4,274.1 L 204.2,281.3 L 209.9,264.8 L 215.7,258.4 L 221.5,260.8 L 227.2,250.6 L 233.0,228.6 L 238.8,191.0 L 244.5,186.2 L 250.3,199.2 L 256.1,206.4 L 261.8,196.7 L 267.6,192.9 L 273.4,200.6 L 279.1,226.0 L 284.9,268.0 L 290.7,231.2 L 296.4,228.9 L 302.2,244.3 L 308.0,238.3 L 313.7,219.3 L 319.5,222.0 L 325.3,228.8 L 331.0,225.3 L 336.8,223.3 L 342.6,213.1 L 348.3,223.4 L 354.1,214.6 L 359.9,241.3 L 365.6,242.9 L 371.4,226.5 L 377.2,235.1 L 382.9,227.2 L 388.7,243.0 L 394.5,249.5 L 400.2,227.2 L 406.0,247.3 L 411.8,243.3 L 417.5,241.1 L 423.3,245.2 L 429.1,215.7 L 434.8,220.3 L 440.6,217.5 L 446.4,217.2 L 452.1,200.1 L 457.9,203.2 L 463.6,201.6 L 469.4,202.2 L 475.2,206.3 L 480.9,204.9 L 486.7,207.1 L 492.5,208.4 L 498.2,208.9 L 504.0,203.0 L 509.8,204.7 L 515.5,215.5 L 521.3,226.8 L 527.1,194.9 L 532.8,152.9 L 538.6,168.4 L 544.4,175.0 L 550.1,178.1 L 555.9,198.8 L 561.7,203.0 L 567.4,201.2 L 573.2,213.6 L 579.0,218.5 L 584.7,231.5 L 590.5,242.0 L 596.3,219.5 L 602.0,214.1 L 607.8,218.4 L 613.6,228.2 L 619.3,236.6 L 625.1,238.8 L 630.9,234.4 L 636.6,245.2 L 642.4,235.0 L 648.2,242.9 L 653.9,272.6 L 659.7,258.1 L 665.5,264.9 L 671.2,263.0 L 677.0,252.7 L 682.8,247.3 L 688.5,243.7 L 694.3,251.0 L 700.1,257.1 L 705.8,261.5 L 711.6,272.3 L 717.4,288.7 L 723.1,289.3 L 728.9,280.3 L 734.7,298.2 L 740.4,281.7 L 746.2,281.1 L 752.0,276.1 L 757.7,287.3 L 763.5,269.1 L 769.3,261.4 L 775.0,272.4 L 780.8,282.6 L 786.6,289.9 L 792.3,275.3 L 798.1,285.2 L 803.9,295.7 L 809.6,279.1 L 815.4,286.6 L 821.2,298.7 L 826.9,297.0 L 832.7,299.1 L 838.5,291.6 L 844.2,301.8 L 850.0,299.0" class="sec-line" stroke="#facc15"/></g>
<g class=""><path d="M 60.0,348.9 L 65.8,344.9 L 71.5,344.4 L 77.3,343.6 L 83.1,341.1 L 88.8,339.3 L 94.6,342.2 L 100.4,343.1 L 106.1,346.6 L 111.9,346.0 L 117.7,343.7 L 123.4,345.9 L 129.2,345.1 L 135.0,355.9 L 140.7,353.5 L 146.5,345.8 L 152.3,337.2 L 158.0,335.6 L 163.8,330.7 L 169.6,328.1 L 175.3,336.2 L 181.1,343.5 L 186.9,337.0 L 192.6,336.7 L 198.4,341.4 L 204.2,346.9 L 209.9,339.4 L 215.7,339.7 L 221.5,336.7 L 227.2,336.1 L 233.0,338.2 L 238.8,329.1 L 244.5,330.7 L 250.3,330.3 L 256.1,328.4 L 261.8,330.1 L 267.6,326.2 L 273.4,325.5 L 279.1,334.2 L 284.9,359.6 L 290.7,341.3 L 296.4,339.6 L 302.2,344.8 L 308.0,342.9 L 313.7,342.9 L 319.5,342.5 L 325.3,341.6 L 331.0,345.2 L 336.8,343.9 L 342.6,340.3 L 348.3,343.7 L 354.1,341.0 L 359.9,351.3 L 365.6,346.4 L 371.4,340.0 L 377.2,338.9 L 382.9,337.3 L 388.7,342.7 L 394.5,351.9 L 400.2,345.5 L 406.0,355.7 L 411.8,356.4 L 417.5,359.0 L 423.3,359.9 L 429.1,355.4 L 434.8,356.1 L 440.6,355.0 L 446.4,355.7 L 452.1,354.6 L 457.9,348.5 L 463.6,347.6 L 469.4,348.3 L 475.2,348.9 L 480.9,351.5 L 486.7,354.3 L 492.5,353.5 L 498.2,350.5 L 504.0,348.3 L 509.8,350.7 L 515.5,351.9 L 521.3,357.3 L 527.1,357.3 L 532.8,359.4 L 538.6,360.5 L 544.4,360.6 L 550.1,363.7 L 555.9,362.2 L 561.7,365.6 L 567.4,360.3 L 573.2,365.9 L 579.0,372.2 L 584.7,373.9 L 590.5,377.3 L 596.3,373.2 L 602.0,365.0 L 607.8,365.1 L 613.6,362.8 L 619.3,365.3 L 625.1,367.4 L 630.9,368.9 L 636.6,372.7 L 642.4,373.3 L 648.2,377.8 L 653.9,390.7 L 659.7,383.8 L 665.5,384.2 L 671.2,381.2 L 677.0,382.0 L 682.8,380.4 L 688.5,379.3 L 694.3,373.9 L 700.1,377.4 L 705.8,382.0 L 711.6,383.7 L 717.4,390.3 L 723.1,381.4 L 728.9,382.7 L 734.7,389.6 L 740.4,375.6 L 746.2,381.2 L 752.0,380.1 L 757.7,382.3 L 763.5,382.0 L 769.3,386.9 L 775.0,383.7 L 780.8,389.8 L 786.6,392.1 L 792.3,391.6 L 798.1,395.2 L 803.9,400.1 L 809.6,395.1 L 815.4,396.2 L 821.2,400.2 L 826.9,402.0 L 832.7,404.2 L 838.5,398.7 L 844.2,397.0 L 850.0,392.8" class="sec-line" stroke="#ca8a04"/></g>
<g class=""><path d="M 60.0,348.9 L 65.8,346.8 L 71.5,340.0 L 77.3,337.8 L 83.1,329.8 L 88.8,319.9 L 94.6,316.0 L 100.4,309.3 L 106.1,318.6 L 111.9,310.6 L 117.7,312.9 L 123.4,305.7 L 129.2,308.1 L 135.0,312.9 L 140.7,317.2 L 146.5,314.0 L 152.3,316.9 L 158.0,317.8 L 163.8,316.9 L 169.6,317.6 L 175.3,321.7 L 181.1,331.5 L 186.9,321.5 L 192.6,318.0 L 198.4,327.5 L 204.2,332.8 L 209.9,331.3 L 215.7,333.5 L 221.5,332.6 L 227.2,331.6 L 233.0,332.3 L 238.8,321.6 L 244.5,312.5 L 250.3,311.3 L 256.1,315.3 L 261.8,315.2 L 267.6,316.9 L 273.4,316.0 L 279.1,321.2 L 284.9,352.3 L 290.7,333.1 L 296.4,331.7 L 302.2,328.7 L 308.0,329.2 L 313.7,322.6 L 319.5,316.3 L 325.3,318.0 L 331.0,323.6 L 336.8,321.5 L 342.6,321.3 L 348.3,326.2 L 354.1,327.3 L 359.9,343.5 L 365.6,339.7 L 371.4,337.8 L 377.2,339.2 L 382.9,342.8 L 388.7,351.4 L 394.5,352.4 L 400.2,344.0 L 406.0,349.8 L 411.8,339.4 L 417.5,343.1 L 423.3,345.1 L 429.1,336.9 L 434.8,339.2 L 440.6,338.1 L 446.4,341.4 L 452.1,338.0 L 457.9,336.9 L 463.6,332.0 L 469.4,327.9 L 475.2,328.2 L 480.9,318.1 L 486.7,305.5 L 492.5,302.1 L 498.2,295.0 L 504.0,294.9 L 509.8,297.0 L 515.5,295.7 L 521.3,298.9 L 527.1,298.0 L 532.8,303.7 L 538.6,296.9 L 544.4,306.0 L 550.1,298.7 L 555.9,303.9 L 561.7,303.3 L 567.4,312.4 L 573.2,321.3 L 579.0,323.9 L 584.7,330.3 L 590.5,328.9 L 596.3,322.4 L 602.0,315.3 L 607.8,300.8 L 613.6,303.9 L 619.3,315.5 L 625.1,319.3 L 630.9,319.9 L 636.6,326.3 L 642.4,327.5 L 648.2,330.7 L 653.9,342.6 L 659.7,342.7 L 665.5,335.2 L 671.2,339.8 L 677.0,331.0 L 682.8,315.5 L 688.5,313.6 L 694.3,310.3 L 700.1,317.8 L 705.8,320.5 L 711.6,331.2 L 717.4,346.8 L 723.1,345.0 L 728.9,347.1 L 734.7,356.0 L 740.4,344.8 L 746.2,349.9 L 752.0,345.5 L 757.7,348.9 L 763.5,347.9 L 769.3,343.9 L 775.0,360.1 L 780.8,370.9 L 786.6,373.8 L 792.3,368.8 L 798.1,372.5 L 803.9,378.0 L 809.6,372.8 L 815.4,368.0 L 821.2,376.0 L 826.9,376.1 L 832.7,372.1 L 838.5,359.4 L 844.2,364.1 L 850.0,362.6" class="sec-line" stroke="#eab308"/></g>
<g class=""><path d="M 60.0,348.9 L 65.8,341.2 L 71.5,334.0 L 77.3,334.9 L 83.1,325.1 L 88.8,311.1 L 94.6,305.3 L 100.4,295.2 L 106.1,300.8 L 111.9,294.0 L 117.7,299.8 L 123.4,295.3 L 129.2,296.1 L 135.0,298.9 L 140.7,303.3 L 146.5,304.0 L 152.3,301.7 L 158.0,304.8 L 163.8,298.8 L 169.6,296.7 L 175.3,299.2 L 181.1,310.0 L 186.9,296.0 L 192.6,290.6 L 198.4,306.5 L 204.2,313.7 L 209.9,308.8 L 215.7,313.2 L 221.5,314.1 L 227.2,311.7 L 233.0,311.3 L 238.8,305.0 L 244.5,292.7 L 250.3,294.5 L 256.1,292.8 L 261.8,294.1 L 267.6,296.4 L 273.4,291.9 L 279.1,261.2 L 284.9,305.8 L 290.7,273.8 L 296.4,261.8 L 302.2,269.5 L 308.0,274.0 L 313.7,276.0 L 319.5,272.3 L 325.3,275.0 L 331.0,275.7 L 336.8,277.1 L 342.6,279.9 L 348.3,282.5 L 354.1,289.9 L 359.9,303.9 L 365.6,297.9 L 371.4,283.8 L 377.2,285.8 L 382.9,289.6 L 388.7,299.8 L 394.5,310.2 L 400.2,283.9 L 406.0,282.3 L 411.8,272.9 L 417.5,276.0 L 423.3,272.0 L 429.1,271.9 L 434.8,268.7 L 440.6,264.9 L 446.4,265.5 L 452.1,264.5 L 457.9,267.1 L 463.6,265.0 L 469.4,269.1 L 475.2,267.1 L 480.9,268.7 L 486.7,257.8 L 492.5,261.8 L 498.2,261.7 L 504.0,264.6 L 509.8,267.5 L 515.5,263.3 L 521.3,264.2 L 527.1,257.3 L 532.8,259.7 L 538.6,276.4 L 544.4,283.5 L 550.1,280.7 L 555.9,286.4 L 561.7,288.3 L 567.4,285.7 L 573.2,298.0 L 579.0,297.6 L 584.7,298.2 L 590.5,302.7 L 596.3,297.5 L 602.0,288.0 L 607.8,282.6 L 613.6,288.4 L 619.3,294.0 L 625.1,300.4 L 630.9,300.8 L 636.6,315.2 L 642.4,318.1 L 648.2,321.6 L 653.9,334.6 L 659.7,331.7 L 665.5,322.0 L 671.2,326.2 L 677.0,315.2 L 682.8,304.6 L 688.5,287.6 L 694.3,288.5 L 700.1,298.0 L 705.8,305.0 L 711.6,308.7 L 717.4,322.2 L 723.1,319.6 L 728.9,325.5 L 734.7,337.6 L 740.4,326.7 L 746.2,334.7 L 752.0,322.9 L 757.7,321.0 L 763.5,315.0 L 769.3,311.6 L 775.0,327.6 L 780.8,345.4 L 786.6,351.4 L 792.3,341.5 L 798.1,347.5 L 803.9,355.9 L 809.6,346.4 L 815.4,344.9 L 821.2,355.3 L 826.9,355.2 L 832.7,353.0 L 838.5,338.9 L 844.2,341.9 L 850.0,348.6" class="sec-line" stroke="#fb923c"/></g>
<g class=""><path d="M 60.0,348.9 L 65.8,342.4 L 71.5,339.6 L 77.3,340.7 L 83.1,340.7 L 88.8,338.5 L 94.6,327.1 L 100.4,325.2 L 106.1,318.7 L 111.9,315.6 L 117.7,310.9 L 123.4,307.9 L 129.2,303.8 L 135.0,305.7 L 140.7,307.2 L 146.5,296.9 L 152.3,300.1 L 158.0,299.7 L 163.8,294.5 L 169.6,291.5 L 175.3,298.6 L 181.1,305.1 L 186.9,291.0 L 192.6,282.1 L 198.4,288.2 L 204.2,294.3 L 209.9,280.6 L 215.7,278.3 L 221.5,272.9 L 227.2,269.4 L 233.0,271.6 L 238.8,262.1 L 244.5,255.4 L 250.3,251.5 L 256.1,245.9 L 261.8,228.4 L 267.6,218.4 L 273.4,222.3 L 279.1,245.4 L 284.9,286.5 L 290.7,262.9 L 296.4,254.3 L 302.2,267.2 L 308.0,260.1 L 313.7,256.0 L 319.5,251.3 L 325.3,240.5 L 331.0,247.1 L 336.8,245.8 L 342.6,225.7 L 348.3,226.4 L 354.1,209.5 L 359.9,226.2 L 365.6,235.9 L 371.4,226.0 L 377.2,236.3 L 382.9,236.8 L 388.7,238.9 L 394.5,246.5 L 400.2,216.0 L 406.0,237.8 L 411.8,227.1 L 417.5,217.1 L 423.3,211.5 L 429.1,157.7 L 434.8,165.2 L 440.6,163.5 L 446.4,171.9 L 452.1,165.5 L 457.9,149.2 L 463.6,150.3 L 469.4,153.6 L 475.2,158.3 L 480.9,143.4 L 486.7,149.3 L 492.5,142.3 L 498.2,140.8 L 504.0,140.2 L 509.8,131.5 L 515.5,134.3 L 521.3,149.7 L 527.1,154.0 L 532.8,143.6 L 538.6,117.9 L 544.4,124.2 L 550.1,127.2 L 555.9,146.5 L 561.7,154.0 L 567.4,139.8 L 573.2,169.1 L 579.0,176.0 L 584.7,190.8 L 590.5,199.2 L 596.3,172.6 L 602.0,164.8 L 607.8,162.0 L 613.6,178.2 L 619.3,185.4 L 625.1,173.4 L 630.9,183.0 L 636.6,187.5 L 642.4,176.5 L 648.2,197.0 L 653.9,227.3 L 659.7,213.4 L 665.5,213.6 L 671.2,220.4 L 677.0,203.7 L 682.8,171.3 L 688.5,153.1 L 694.3,170.7 L 700.1,181.7 L 705.8,192.0 L 711.6,187.1 L 717.4,225.5 L 723.1,216.9 L 728.9,211.5 L 734.7,226.8 L 740.4,212.3 L 746.2,215.0 L 752.0,211.3 L 757.7,225.8 L 763.5,222.9 L 769.3,218.6 L 775.0,232.2 L 780.8,252.8 L 786.6,256.7 L 792.3,241.9 L 798.1,262.0 L 803.9,267.0 L 809.6,258.0 L 815.4,268.8 L 821.2,283.9 L 826.9,272.0 L 832.7,264.7 L 838.5,247.2 L 844.2,253.9 L 850.0,250.8" class="sec-line" stroke="#d97706"/></g>
<g class=""><path d="M 60.0,348.9 L 65.8,344.3 L 71.5,345.1 L 77.3,344.9 L 83.1,342.2 L 88.8,340.8 L 94.6,344.3 L 100.4,347.8 L 106.1,352.3 L 111.9,351.9 L 117.7,346.8 L 123.4,347.9 L 129.2,348.3 L 135.0,363.2 L 140.7,358.1 L 146.5,345.9 L 152.3,326.1 L 158.0,323.0 L 163.8,314.5 L 169.6,308.5 L 175.3,321.7 L 181.1,331.6 L 186.9,324.4 L 192.6,326.9 L 198.4,335.6 L 204.2,343.9 L 209.9,334.3 L 215.7,337.5 L 221.5,336.6 L 227.2,335.5 L 233.0,337.4 L 238.8,322.7 L 244.5,325.8 L 250.3,325.9 L 256.1,326.0 L 261.8,327.7 L 267.6,318.4 L 273.4,315.4 L 279.1,323.2 L 284.9,351.6 L 290.7,325.1 L 296.4,324.0 L 302.2,327.2 L 308.0,325.9 L 313.7,328.6 L 319.5,328.4 L 325.3,323.6 L 331.0,327.3 L 336.8,328.6 L 342.6,325.0 L 348.3,327.5 L 354.1,322.2 L 359.9,330.9 L 365.6,328.5 L 371.4,319.7 L 377.2,317.6 L 382.9,316.5 L 388.7,320.7 L 394.5,338.2 L 400.2,333.2 L 406.0,347.9 L 411.8,347.6 L 417.5,351.7 L 423.3,355.2 L 429.1,349.9 L 434.8,350.5 L 440.6,349.2 L 446.4,348.6 L 452.1,347.9 L 457.9,338.2 L 463.6,339.8 L 469.4,342.0 L 475.2,341.9 L 480.9,345.9 L 486.7,351.1 L 492.5,349.2 L 498.2,343.9 L 504.0,338.0 L 509.8,343.4 L 515.5,344.6 L 521.3,351.7 L 527.1,350.7 L 532.8,353.6 L 538.6,355.6 L 544.4,355.9 L 550.1,357.4 L 555.9,354.5 L 561.7,359.9 L 567.4,355.5 L 573.2,359.6 L 579.0,369.8 L 584.7,370.6 L 590.5,375.6 L 596.3,375.5 L 602.0,363.0 L 607.8,361.5 L 613.6,356.5 L 619.3,358.3 L 625.1,362.0 L 630.9,365.5 L 636.6,369.0 L 642.4,369.0 L 648.2,375.6 L 653.9,391.0 L 659.7,383.4 L 665.5,383.9 L 671.2,379.1 L 677.0,383.8 L 682.8,383.1 L 688.5,379.3 L 694.3,371.4 L 700.1,377.1 L 705.8,381.9 L 711.6,382.9 L 717.4,389.2 L 723.1,380.0 L 728.9,382.8 L 734.7,391.8 L 740.4,375.1 L 746.2,380.9 L 752.0,380.4 L 757.7,385.6 L 763.5,387.8 L 769.3,393.2 L 775.0,389.4 L 780.8,398.5 L 786.6,398.2 L 792.3,401.6 L 798.1,408.1 L 803.9,413.6 L 809.6,406.0 L 815.4,411.1 L 821.2,414.7 L 826.9,417.2 L 832.7,421.0 L 838.5,411.9 L 844.2,414.2 L 850.0,408.6" class="sec-line" stroke="#a3a3a3"/></g>
<g class=""><path d="M 60.0,348.9 L 65.8,342.5 L 71.5,338.1 L 77.3,342.8 L 83.1,344.3 L 88.8,348.0 L 94.6,348.7 L 100.4,344.3 L 106.1,341.8 L 111.9,340.6 L 117.7,340.7 L 123.4,341.4 L 129.2,345.0 L 135.0,346.5 L 140.7,343.8 L 146.5,341.9 L 152.3,333.9 L 158.0,325.7 L 163.8,310.9 L 169.6,305.3 L 175.3,294.7 L 181.1,314.0 L 186.9,299.6 L 192.6,299.6 L 198.4,308.4 L 204.2,307.3 L 209.9,299.0 L 215.7,307.4 L 221.5,310.8 L 227.2,302.8 L 233.0,307.4 L 238.8,299.0 L 244.5,299.7 L 250.3,302.6 L 256.1,298.4 L 261.8,298.6 L 267.6,275.3 L 273.4,263.3 L 279.1,276.3 L 284.9,302.9 L 290.7,257.1 L 296.4,248.7 L 302.2,269.8 L 308.0,261.6 L 313.7,270.8 L 319.5,269.8 L 325.3,274.2 L 331.0,273.5 L 336.8,276.0 L 342.6,263.3 L 348.3,261.5 L 354.1,259.1 L 359.9,273.0 L 365.6,268.5 L 371.4,261.9 L 377.2,276.4 L 382.9,279.1 L 388.7,291.9 L 394.5,301.8 L 400.2,279.8 L 406.0,295.1 L 411.8,292.7 L 417.5,294.3 L 423.3,290.9 L 429.1,270.6 L 434.8,275.3 L 440.6,270.9 L 446.4,272.1 L 452.1,269.7 L 457.9,262.3 L 463.6,258.9 L 469.4,260.4 L 475.2,254.0 L 480.9,247.2 L 486.7,237.6 L 492.5,241.6 L 498.2,233.0 L 504.0,218.0 L 509.8,217.4 L 515.5,222.4 L 521.3,223.7 L 527.1,218.0 L 532.8,207.8 L 538.6,209.1 L 544.4,209.9 L 550.1,202.4 L 555.9,221.8 L 561.7,205.7 L 567.4,204.5 L 573.2,229.8 L 579.0,234.0 L 584.7,249.3 L 590.5,250.7 L 596.3,222.9 L 602.0,216.1 L 607.8,205.4 L 613.6,221.3 L 619.3,237.5 L 625.1,245.4 L 630.9,245.9 L 636.6,254.4 L 642.4,224.8 L 648.2,240.3 L 653.9,273.8 L 659.7,248.1 L 665.5,252.5 L 671.2,220.7 L 677.0,195.3 L 682.8,198.3 L 688.5,211.8 L 694.3,212.6 L 700.1,218.1 L 705.8,236.0 L 711.6,222.1 L 717.4,253.2 L 723.1,253.0 L 728.9,252.3 L 734.7,254.9 L 740.4,251.0 L 746.2,234.6 L 752.0,225.6 L 757.7,260.5 L 763.5,263.2 L 769.3,277.9 L 775.0,292.4 L 780.8,309.3 L 786.6,296.2 L 792.3,274.4 L 798.1,284.2 L 803.9,280.4 L 809.6,254.2 L 815.4,273.8 L 821.2,295.7 L 826.9,294.9 L 832.7,301.5 L 838.5,295.4 L 844.2,316.0 L 850.0,311.0" class="sec-line" stroke="#10b981"/></g>
<g class=""><path d="M 60.0,348.9 L 65.8,351.5 L 71.5,351.0 L 77.3,355.4 L 83.1,354.8 L 88.8,354.2 L 94.6,352.0 L 100.4,349.8 L 106.1,347.8 L 111.9,349.0 L 117.7,352.0 L 123.4,352.5 L 129.2,350.2 L 135.0,354.7 L 140.7,351.0 L 146.5,346.7 L 152.3,335.9 L 158.0,332.3 L 163.8,328.6 L 169.6,324.1 L 175.3,325.9 L 181.1,338.5 L 186.9,338.1 L 192.6,338.0 L 198.4,340.8 L 204.2,339.8 L 209.9,337.6 L 215.7,336.6 L 221.5,334.1 L 227.2,335.8 L 233.0,339.9 L 238.8,334.0 L 244.5,335.9 L 250.3,335.4 L 256.1,336.7 L 261.8,335.8 L 267.6,339.0 L 273.4,340.7 L 279.1,343.6 L 284.9,361.5 L 290.7,352.8 L 296.4,346.3 L 302.2,344.3 L 308.0,343.3 L 313.7,346.7 L 319.5,348.0 L 325.3,340.6 L 331.0,340.1 L 336.8,342.3 L 342.6,340.8 L 348.3,354.1 L 354.1,353.2 L 359.9,359.9 L 365.6,357.2 L 371.4,349.4 L 377.2,351.6 L 382.9,346.7 L 388.7,347.5 L 394.5,347.2 L 400.2,340.1 L 406.0,349.8 L 411.8,350.7 L 417.5,354.6 L 423.3,357.3 L 429.1,353.3 L 434.8,351.6 L 440.6,351.0 L 446.4,350.7 L 452.1,348.1 L 457.9,348.2 L 463.6,345.2 L 469.4,344.6 L 475.2,341.9 L 480.9,344.5 L 486.7,341.0 L 492.5,342.8 L 498.2,340.2 L 504.0,340.6 L 509.8,337.5 L 515.5,338.6 L 521.3,342.4 L 527.1,341.4 L 532.8,346.0 L 538.6,351.1 L 544.4,353.3 L 550.1,355.0 L 555.9,359.0 L 561.7,358.9 L 567.4,354.1 L 573.2,357.1 L 579.0,360.2 L 584.7,360.4 L 590.5,364.2 L 596.3,362.5 L 602.0,355.9 L 607.8,360.8 L 613.6,362.6 L 619.3,363.0 L 625.1,363.0 L 630.9,362.5 L 636.6,358.1 L 642.4,362.6 L 648.2,365.0 L 653.9,372.1 L 659.7,368.3 L 665.5,372.5 L 671.2,368.5 L 677.0,367.0 L 682.8,366.5 L 688.5,367.4 L 694.3,365.5 L 700.1,370.5 L 705.8,370.3 L 711.6,373.0 L 717.4,379.1 L 723.1,378.8 L 728.9,383.4 L 734.7,387.8 L 740.4,376.3 L 746.2,373.7 L 752.0,366.7 L 757.7,370.3 L 763.5,370.5 L 769.3,372.2 L 775.0,370.3 L 780.8,370.7 L 786.6,377.7 L 792.3,372.4 L 798.1,375.7 L 803.9,380.7 L 809.6,381.6 L 815.4,380.3 L 821.2,383.8 L 826.9,385.3 L 832.7,385.3 L 838.5,380.0 L 844.2,380.9 L 850.0,377.4" class="sec-line" stroke="#9333ea"/></g>
<g class=""><path d="M 60.0,348.9 L 65.8,344.2 L 71.5,341.8 L 77.3,344.8 L 83.1,345.5 L 88.8,347.8 L 94.6,341.1 L 100.4,330.2 L 106.1,335.6 L 111.9,333.0 L 117.7,337.3 L 123.4,330.1 L 129.2,324.4 L 135.0,328.3 L 140.7,313.0 L 146.5,312.9 L 152.3,303.8 L 158.0,303.6 L 163.8,291.6 L 169.6,292.1 L 175.3,302.0 L 181.1,311.6 L 186.9,304.6 L 192.6,298.4 L 198.4,302.8 L 204.2,311.0 L 209.9,305.5 L 215.7,305.3 L 221.5,307.0 L 227.2,300.5 L 233.0,306.7 L 238.8,294.2 L 244.5,293.9 L 250.3,297.5 L 256.1,288.3 L 261.8,281.0 L 267.6,278.3 L 273.4,273.6 L 279.1,296.2 L 284.9,330.5 L 290.7,307.7 L 296.4,300.8 L 302.2,311.8 L 308.0,307.4 L 313.7,309.0 L 319.5,308.8 L 325.3,316.4 L 331.0,319.5 L 336.8,314.1 L 342.6,308.6 L 348.3,314.0 L 354.1,313.3 L 359.9,324.0 L 365.6,313.2 L 371.4,306.7 L 377.2,311.7 L 382.9,306.6 L 388.7,305.0 L 394.5,312.5 L 400.2,303.8 L 406.0,304.3 L 411.8,304.4 L 417.5,300.7 L 423.3,297.8 L 429.1,291.9 L 434.8,289.9 L 440.6,289.8 L 446.4,293.6 L 452.1,294.4 L 457.9,292.2 L 463.6,286.8 L 469.4,279.4 L 475.2,274.5 L 480.9,253.0 L 486.7,250.0 L 492.5,257.1 L 498.2,252.5 L 504.0,255.5 L 509.8,244.6 L 515.5,239.1 L 521.3,245.5 L 527.1,234.4 L 532.8,229.0 L 538.6,227.1 L 544.4,232.0 L 550.1,237.9 L 555.9,256.0 L 561.7,259.8 L 567.4,255.6 L 573.2,269.5 L 579.0,271.6 L 584.7,283.3 L 590.5,291.2 L 596.3,277.2 L 602.0,268.4 L 607.8,268.9 L 613.6,280.4 L 619.3,268.1 L 625.1,262.7 L 630.9,270.0 L 636.6,281.3 L 642.4,280.0 L 648.2,291.3 L 653.9,312.7 L 659.7,305.7 L 665.5,310.3 L 671.2,311.6 L 677.0,297.6 L 682.8,288.6 L 688.5,290.7 L 694.3,291.0 L 700.1,301.1 L 705.8,303.5 L 711.6,308.9 L 717.4,328.5 L 723.1,322.0 L 728.9,329.3 L 734.7,340.6 L 740.4,314.8 L 746.2,327.1 L 752.0,331.1 L 757.7,335.9 L 763.5,334.5 L 769.3,337.7 L 775.0,342.2 L 780.8,351.8 L 786.6,352.9 L 792.3,343.9 L 798.1,345.5 L 803.9,350.8 L 809.6,340.8 L 815.4,346.4 L 821.2,355.9 L 826.9,354.6 L 832.7,352.2 L 838.5,338.1 L 844.2,347.0 L 850.0,344.6" class="sec-line" stroke="#a78bfa"/></g>
<g class=""><path d="M 60.0,348.9 L 65.8,358.8 L 71.5,361.8 L 77.3,362.8 L 83.1,360.9 L 88.8,362.9 L 94.6,361.9 L 100.4,362.9 L 106.1,363.4 L 111.9,361.2 L 117.7,362.6 L 123.4,356.9 L 129.2,357.0 L 135.0,360.4 L 140.7,359.0 L 146.5,355.9 L 152.3,351.4 L 158.0,353.1 L 163.8,349.5 L 169.6,348.8 L 175.3,349.4 L 181.1,359.6 L 186.9,355.8 L 192.6,356.6 L 198.4,357.6 L 204.2,359.9 L 209.9,352.0 L 215.7,350.8 L 221.5,348.1 L 227.2,347.7 L 233.0,349.4 L 238.8,345.9 L 244.5,348.8 L 250.3,349.0 L 256.1,349.6 L 261.8,350.7 L 267.6,353.3 L 273.4,353.0 L 279.1,364.1 L 284.9,379.2 L 290.7,371.7 L 296.4,365.6 L 302.2,371.1 L 308.0,368.9 L 313.7,369.1 L 319.5,367.8 L 325.3,367.5 L 331.0,369.3 L 336.8,366.6 L 342.6,366.0 L 348.3,369.5 L 354.1,370.4 L 359.9,385.6 L 365.6,382.8 L 371.4,380.7 L 377.2,381.7 L 382.9,380.9 L 388.7,384.0 L 394.5,385.6 L 400.2,384.5 L 406.0,391.9 L 411.8,392.1 L 417.5,392.9 L 423.3,396.0 L 429.1,392.3 L 434.8,394.9 L 440.6,393.8 L 446.4,394.8 L 452.1,394.7 L 457.9,391.2 L 463.6,385.8 L 469.4,386.5 L 475.2,389.6 L 480.9,390.8 L 486.7,390.3 L 492.5,390.5 L 498.2,388.9 L 504.0,390.0 L 509.8,389.0 L 515.5,387.0 L 521.3,388.3 L 527.1,388.6 L 532.8,393.6 L 538.6,394.7 L 544.4,394.8 L 550.1,398.1 L 555.9,401.1 L 561.7,403.0 L 567.4,397.0 L 573.2,396.8 L 579.0,401.0 L 584.7,399.6 L 590.5,405.1 L 596.3,403.6 L 602.0,401.1 L 607.8,402.6 L 613.6,405.4 L 619.3,408.2 L 625.1,409.2 L 630.9,411.1 L 636.6,411.8 L 642.4,412.6 L 648.2,415.7 L 653.9,422.1 L 659.7,417.5 L 665.5,418.3 L 671.2,410.6 L 677.0,410.1 L 682.8,410.9 L 688.5,409.6 L 694.3,407.2 L 700.1,409.9 L 705.8,414.3 L 711.6,416.3 L 717.4,423.1 L 723.1,423.0 L 728.9,426.2 L 734.7,430.0 L 740.4,420.7 L 746.2,422.8 L 752.0,418.8 L 757.7,415.1 L 763.5,418.9 L 769.3,416.7 L 775.0,412.4 L 780.8,415.2 L 786.6,418.6 L 792.3,416.5 L 798.1,419.5 L 803.9,423.0 L 809.6,422.4 L 815.4,424.4 L 821.2,427.2 L 826.9,427.4 L 832.7,427.4 L 838.5,422.6 L 844.2,423.8 L 850.0,418.7" class="sec-line" stroke="#7c3aed"/></g>
<text x="60" y="18" fill="#e2e8f0" font-size="13" font-weight="700">YTD 상대 성과 · 2026-01-02 = 100 (정적 폴백)</text>
</svg>